<svg version="1.1" xmlns="http://www.w3.org/2000/svg" xmlns:xlink="http://www.w3.org/1999/xlink" width="95.34115" height="126.79341" viewBox="0,0,95.34115,126.79341"><g transform="translate(-192.65434,-118.7156)"><g data-paper-data="{&quot;isPaintingLayer&quot;:true}" fill-rule="nonzero" stroke-miterlimit="10" stroke-dasharray="" stroke-dashoffset="0" style="mix-blend-mode: normal"><g data-paper-data="{&quot;index&quot;:null}" stroke="none" stroke-width="0.77185" stroke-linecap="butt" stroke-linejoin="miter"><path d="M258.30598,242.68234c-0.66954,0.30827 -1.30722,0.42176 -1.87106,0.34152c-1.86396,-0.22266 -2.50095,-1.65779 -2.69126,-3.16934c-1.28412,1.57016 -2.94877,3.15909 -4.69179,3.96161c-1.39377,0.64172 -2.67827,0.71064 -3.8169,0.20499c-2.22501,-0.99033 -2.84301,-2.576 -2.96879,-3.73149c-0.07097,-0.64119 -0.00423,-1.29558 0.16084,-1.92985c-2.8769,0.94731 -4.62897,0.09108 -5.28808,-1.05424c-0.86614,-1.50292 -0.37217,-4.10444 3.49391,-6.99682c0.11705,-0.20174 0.29548,-0.36965 0.51775,-0.47199c0.20747,-0.09552 0.50275,-0.11677 0.72785,-0.08192c1.03572,0.16209 4.75781,0.69421 9.16764,0.75841c2.50197,0.03768 10.62921,-2.07285 13.54915,-2.88959c0.37889,-0.10554 0.78573,-0.01168 1.08029,0.24957c0.29443,0.2612 0.43548,0.65435 0.37563,1.043c-0.22638,1.46637 -2.32943,8.00886 -3.05063,9.26799c-0.01648,0.02707 -0.03357,0.05454 -0.05132,0.08055c-0.09348,0.1365 -2.32251,3.34908 -4.64324,4.4176z" fill="#f7941e"/><path d="M241.63478,230.88831c-0.00072,0.00034 0.04363,0.00798 0.13595,0.02581c-6.30915,4.44624 -4.13173,8.45547 1.41044,5.90373c0.80134,-0.36895 1.67231,-0.87456 2.59922,-1.53582c-1.89801,1.40154 -4.2124,5.84064 -0.07452,7.68185c0.88534,0.39284 1.87089,0.25778 2.86216,-0.19862c2.7294,-1.25667 5.50123,-4.94782 6.33774,-6.75204c0.08702,1.65258 -0.78394,5.56887 1.66601,5.86081c0.38984,0.055 0.81431,-0.04191 1.25104,-0.24299c1.65527,-0.76212 3.47797,-3.01015 4.17422,-4.02242c0.63567,-1.10922 2.70444,-7.53056 2.91081,-8.86872c0,0 -10.66001,2.98008 -13.87894,2.93178c-5.20763,-0.0768 -9.38715,-0.78659 -9.39414,-0.78337M240.66638,228.78504c0.63584,-0.29275 1.18434,-0.20709 1.39075,-0.17387c1.0162,0.15842 4.67124,0.68144 9.00414,0.74451c2.10254,0.03212 9.22586,-1.72836 13.22247,-2.84618c0.75795,-0.21213 1.57147,-0.02501 2.16003,0.49841c0.58898,0.52246 0.87176,1.30832 0.75106,2.08532c-0.22183,1.43368 -2.36038,8.21853 -3.1902,9.66617c-0.03149,0.05523 -0.06608,0.10946 -0.10197,0.16254c-0.25356,0.36819 -2.55202,3.63321 -5.1131,4.81239c-0.86447,0.39802 -1.71115,0.54488 -2.51757,0.43607c-1.57484,-0.19439 -2.50224,-0.99611 -3.04189,-2.01874c-1.12574,1.12414 -2.3948,2.11798 -3.69537,2.71679c-2.12852,0.98002 -3.76925,0.65546 -4.77067,0.21159c-2.12935,-0.9485 -3.42538,-2.60444 -3.65096,-4.66485c-0.02024,-0.18433 -0.03088,-0.36978 -0.03366,-0.55466c-2.55471,0.33845 -4.21304,-0.70536 -4.94546,-1.97667c-1.10232,-1.91259 -0.67693,-5.07648 3.64487,-8.38169c0.22731,-0.30183 0.52783,-0.5515 0.88753,-0.71712z" fill="#000000"/></g><g data-paper-data="{&quot;index&quot;:null}" stroke="none" stroke-width="0.77185" stroke-linecap="butt" stroke-linejoin="miter"><g><path d="M239.83732,231.7972c-0.8953,0 -1.766,-0.027 -2.5911,-0.0787c-0.1211,0.007 -0.3527,0.0185 -0.6877,0.0185c0,0 0,0 -0.0008,0c-2.2476,0 -10.3496,-0.5302 -20.2617,-7.341c-5.193,-3.569 -8.904,-7.3649 -11.0289,-11.2828c-3.268,-6.0266 -2.7902,-12.1875 1.421,-18.3113c24.608,-35.7821 19.3687,-39.8188 13.3035,-44.4931c-1.9412,-1.4959 -4.1425,-3.1916 -5.5812,-5.8738c-1.5344,-2.8589 0.5179,-7.5046 2.7941,-11.7467c0.0208,-0.0602 0.0463,-0.1204 0.0779,-0.1783c0.2856,-0.5326 0.619,-1.0852 1.0196,-1.6911l0.2023,-0.3049c0.027,-0.0386 0.0548,-0.0756 0.0856,-0.1142c0.3651,-0.5257 0.7016,-0.9749 1.0304,-1.3747c0.44,-0.5333 5.9024,-5.7634 11.6248,-7.6559c0.6106,-0.2007 4.7585,-1.1956 7.0022,-1.4557c0.2856,-0.0332 0.7611,-0.0402 1.1099,-0.0402c1.1833,0 29.0423,0.2046 33.7675,18.0165c0.8197,3.092 1.5021,5.8753 1.5383,8.6238c0.0911,6.9235 -2.6042,13.6748 -8.2356,20.6145c3.8253,5.22 5.5156,12.179 7.1535,18.9203c1.4171,5.8336 2.7563,11.3446 5.3173,15.4932c0.7541,1.1045 1.566,2.1126 2.3518,3.089c2.1187,2.632 4.31,5.3535 5.2848,9.9028c0.2169,1.0142 0.318,2.0222 0.3018,2.9978c-0.1173,6.8007 -5.7294,11.3709 -13.9666,11.3709c-0.4662,0 -0.9424,-0.0147 -1.4796,-0.0456l-0.1243,-0.0046c-0.5117,-0.0278 -1.0311,-0.0432 -1.5591,-0.0479l-0.707,0.0054c-0.3635,0.0039 -0.7271,0.0077 -1.096,0.0201c-0.2794,0.01 -0.5604,0.0224 -0.8467,0.0378c-0.3327,0.0162 -0.6677,0.0355 -1.0027,0.0579c-0.3102,0.0224 -0.6213,0.044 -0.9362,0.0702c-0.3088,0.0247 -0.6198,0.0541 -0.9332,0.0842c0,0 -0.7556,0.0718 -1.0319,0.1011l-0.7387,0.0849c-1.4279,0.1644 -2.9693,0.3674 -4.8511,0.6391c-0.7872,0.1134 -1.5768,0.2315 -2.3687,0.3481c-5.1243,0.7587 -10.4238,1.5444 -15.3575,1.5444z" fill="#8a8fc6"/><path d="M239.35722,121.0311c-0.4816,0 -0.8174,0.0139 -0.9771,0.0324c-2.2145,0.257 -6.2651,1.2381 -6.773,1.4055c-5.4986,1.8177 -10.7896,6.9243 -11.093,7.2925c-0.3396,0.4137 -0.6614,0.8505 -0.9733,1.299c-0.027,0.0393 -0.0578,0.0741 -0.0849,0.1127c-0.064,0.0934 -0.1258,0.1891 -0.1883,0.284c-0.3388,0.5133 -0.6653,1.042 -0.9656,1.6008c0,0 0.0116,-0.0077 0.0286,-0.0185c-1.2326,2.2831 -4.3818,8.0882 -2.9006,10.8483c5.7996,10.8082 24.892,4.0522 -7.7879,51.5701c-9.0206,13.116 2.2977,23.1655 9.31,27.9841c9.6002,6.5962 17.3295,7.1373 19.6064,7.1373c0.4461,0 0.6839,-0.0209 0.6839,-0.0209c0.8521,0.0548 1.7173,0.0803 2.5949,0.0803c5.5975,0 11.6734,-1.0281 17.5603,-1.881c1.6487,-0.2385 3.2803,-0.4592 4.885,-0.6437c0.2493,-0.0286 0.5002,-0.0594 0.7487,-0.0857c0.3504,-0.0378 0.697,-0.0694 1.0443,-0.1026c0.318,-0.0309 0.6345,-0.0602 0.9494,-0.0857c0.3188,-0.0263 0.6344,-0.0486 0.9494,-0.071c0.3442,-0.0232 0.6861,-0.0432 1.0265,-0.0595c0.2895,-0.0154 0.5781,-0.0285 0.8637,-0.0385c0.3782,-0.0132 0.7518,-0.017 1.1238,-0.0209c0.2015,-0.0023 0.4052,-0.0062 0.6059,-0.0062c0.0417,0 0.0826,0.0008 0.1235,0.0008c0.5449,0.0046 1.0814,0.0209 1.6109,0.0494c0.0594,0.0039 0.1211,0.0031 0.1806,0.007c0.4639,0.0277 0.9169,0.0416 1.3607,0.0416c7.9624,0 12.7085,-4.3841 12.8088,-10.2331c0.0155,-0.8822 -0.0756,-1.7969 -0.2763,-2.7354c-1.2666,-5.9085 -4.6311,-8.4394 -7.4607,-12.5819c-5.9185,-9.5809 -5.5326,-25.7712 -12.9932,-35.0935c0,0 0,-0.0008 0.0007,-0.0008c4.8882,-5.8267 8.6602,-12.622 8.556,-20.572c-0.0348,-2.6498 -0.7101,-5.3651 -1.4997,-8.3422c-4.1047,-15.4724 -27.3327,-17.1527 -32.6484,-17.1527M239.35722,118.7156c1.2196,0 29.9361,0.2138 34.8867,18.8762c0.8398,3.1677 1.5383,6.0243 1.5761,8.9048c0.0919,6.976 -2.5108,13.7543 -7.9461,20.6739c3.5999,5.3011 5.24,12.054 6.8316,18.6031c1.3901,5.7209 2.703,11.1262 5.1783,15.1583c0.7201,1.0497 1.5067,2.0268 2.2677,2.9724c2.2036,2.7377 4.4821,5.5681 5.5148,10.3859c0.2354,1.0999 0.3451,2.1967 0.3273,3.2603c-0.1281,7.4823 -6.2064,12.5093 -15.1236,12.5093c-0.4909,0 -0.9949,-0.0154 -1.4989,-0.0455c-0.0695,-0.0016 -0.1297,-0.0039 -0.1891,-0.0077c-0.47,-0.0255 -0.9764,-0.0409 -1.4835,-0.0456l-0.1042,-0.0007c-0.1219,0 -0.2454,0.0015 -0.3682,0.0038l-0.2161,0.0023c-0.3527,0.0039 -0.707,0.0077 -1.0667,0.0193c-0.2709,0.0101 -0.5464,0.0224 -0.8212,0.0371c-0.3334,0.0162 -0.6607,0.0347 -0.9903,0.0571c-0.301,0.0208 -0.6074,0.0432 -0.9154,0.0679c-0.3056,0.0255 -0.6105,0.0533 -0.9162,0.0834l-0.2138,0.02c-0.2686,0.0247 -0.5364,0.0502 -0.8066,0.0795c-0.1597,0.017 -0.3172,0.0363 -0.4754,0.0541l-0.257,0.0301c-1.4164,0.1628 -2.9477,0.3651 -4.8179,0.6344c-0.785,0.1135 -1.5746,0.2308 -2.3649,0.3481c-5.166,0.7649 -10.508,1.5568 -15.5273,1.5568c-0.8938,0 -1.766,-0.0254 -2.5942,-0.0764c-0.1512,0.0085 -0.382,0.0162 -0.6846,0.0162c-2.3317,0 -10.7302,-0.5441 -20.9186,-7.544c-5.3458,-3.674 -9.1788,-7.6058 -11.3909,-11.685c-3.444,-6.35 -2.9307,-13.0998 1.4851,-19.52c11.1856,-16.2635 17.0933,-27.3604 18.0604,-33.9226c0.7302,-4.9568 -1.3546,-6.5638 -4.5107,-8.9959c-2.0338,-1.5668 -4.3385,-3.3429 -5.8953,-6.2435c-1.7853,-3.3282 0.3604,-8.2989 2.7554,-12.7694c0.034,-0.0849 0.0726,-0.169 0.1166,-0.2508c0.3026,-0.5635 0.6538,-1.1462 1.0736,-1.7815l0.0494,-0.0756c0.0525,-0.0803 0.1065,-0.1613 0.1606,-0.2408c0.0417,-0.0602 0.0802,-0.1112 0.1181,-0.1606c0.3735,-0.5379 0.7216,-0.9995 1.0613,-1.4132c0.5379,-0.6538 6.1354,-6.0297 12.155,-8.0203c0.6561,-0.2161 4.8742,-1.2334 7.233,-1.5074c0.2747,-0.0316 0.6931,-0.0478 1.2457,-0.0478z" fill="#000000"/></g><path d="M237.24162,230.5584c0,0 -8.8075,0.7742 -20.2903,-7.1164c-7.0122,-4.8186 -18.3298,-14.8681 -9.31,-27.9841c32.68,-47.5179 13.5876,-40.7627 7.7879,-51.5701c-1.4812,-2.7601 1.668,-8.566 2.9006,-10.8483c-0.017,0.0108 -0.0285,0.0185 -0.0285,0.0185c0.3002,-0.5588 0.6267,-1.0875 0.9655,-1.6008c0.0626,-0.0949 0.1243,-0.1906 0.1884,-0.284c0.027,-0.0394 0.0579,-0.0741 0.0849,-0.1127c9.1494,-3.6262 23.1631,-2.3904 28.9396,11.3909c4.9437,11.7892 -18.6748,31.0876 -3.9133,38.5499c5.6878,2.8751 17.5503,11.6008 17.5503,20.6731c0,9.0723 -5.403,19.486 -4.8889,25.6608c0.044,0.5218 0.1027,0.9849 0.169,1.4233c-6.81,0.9856 -13.8708,2.2067 -20.1552,1.7999z" fill="#ffffff"/></g><g data-paper-data="{&quot;index&quot;:null}" stroke="none" stroke-width="0.77185" stroke-linecap="butt" stroke-linejoin="miter"><path d="M217.75562,169.6667c-0.6677,0 -1.3176,-0.061 -1.932,-0.1822c-3.4416,-0.4376 -5.8073,-1.617 -7.033,-3.5049c-0.3319,-0.511 -0.2115,-1.1918 0.2763,-1.5568c0.1304,-0.0981 0.2863,-0.1691 0.4453,-0.2046c0.2671,-0.0602 5.765,-1.3507 8.603,-5.9378c-3.8345,1.1956 -8.9904,2.2299 -13.1051,2.2299c-1.208,0 -2.2994,-0.088 -3.2418,-0.2617c-3.8677,-0.7124 -5.7888,-2.5131 -6.7189,-3.8986c-1.0852,-1.6162 -1.4812,-3.6269 -1.0868,-5.5156c0.6738,-3.2418 2.977,-3.6385 5.6438,-4.0977c1.3553,-0.2339 2.8913,-0.4986 4.6866,-1.1331c1.57,-0.5542 2.7563,-1.2604 4.0121,-2.0083c2.1048,-1.2535 4.4906,-2.6729 8.9573,-3.4409c0.3874,-0.0741 0.7942,-0.1112 1.2094,-0.1112c5.8946,0 13.0906,7.2654 15.3482,13.5151c0.8629,2.3865 0.2655,5.23 -1.6818,8.0055c-3.2403,4.618 -9.4243,8.1006 -14.3826,8.1013c-0.0008,0 -0.0016,0 0,0.0016z" fill="#f7941e"/><path d="M218.47182,141.201c-0.3396,0 -0.6722,0.0293 -0.9933,0.0903c-6.8726,1.1817 -8.3622,3.8353 -12.8003,5.4029c-5.4948,1.9412 -8.8006,0.6113 -9.5833,4.3741c-0.5696,2.7292 0.68,6.898 6.8818,8.0403c0.9108,0.1675 1.9366,0.2424 3.0326,0.2424c5.0973,0 11.7189,-1.6217 15.2988,-3.0728c-2.3789,7.3326 -10.545,9.0669 -10.5481,9.0692c0.9965,1.5345 3.0488,2.5911 6.2489,2.9917c0.5627,0.1135 1.1469,0.1675 1.7467,0.1675c7.4768,0 17.1905,-8.4316 14.9761,-14.5547c-2.2399,-6.1995 -9.1881,-12.7509 -14.2599,-12.7509M218.47182,138.8854c6.4558,0 14.0029,7.5394 16.4373,14.28c0.9949,2.7508 0.3473,5.9702 -1.8239,9.0645c-3.4934,4.9792 -9.9414,8.593 -15.3296,8.593c-0.7294,0 -1.4411,-0.0656 -2.1172,-0.196c-3.7743,-0.4878 -6.4048,-1.8393 -7.8196,-4.0183c-0.6638,-1.0219 -0.4222,-2.3834 0.5534,-3.1144c0.2617,-0.1952 0.5666,-0.3357 0.8853,-0.4067c0.1791,-0.0409 2.9392,-0.687 5.4153,-2.6722c-3.1731,0.7371 -6.6494,1.252 -9.6635,1.252c-1.2782,0 -2.4398,-0.095 -3.4525,-0.281c-4.2629,-0.7857 -6.4156,-2.8219 -7.4699,-4.3918c-1.2581,-1.8733 -1.7174,-4.2058 -1.2589,-6.3994c0.8336,-4.0105 3.887,-4.5369 6.5808,-5.0008c1.309,-0.2253 2.7941,-0.4816 4.4975,-1.0829c1.4619,-0.5163 2.5479,-1.1624 3.806,-1.9111c2.1882,-1.3028 4.6689,-2.7794 9.3555,-3.5875c0.4524,-0.0849 0.9247,-0.1274 1.404,-0.1274z" fill="#000000"/></g><path d="M234.80032,139.1193c0.5294,0.6792 0.8575,1.6178 0.8575,2.6536c0,1.0358 -0.3281,1.9744 -0.8575,2.6536c-0.5295,0.68 -1.2612,1.1007 -2.0686,1.1007c-0.8073,0 -1.5391,-0.4207 -2.0685,-1.1007c-0.5295,-0.6792 -0.8576,-1.6178 -0.8576,-2.6536c0,-1.0358 0.3281,-1.9744 0.8576,-2.6536c0.5294,-0.68 1.2612,-1.1006 2.0685,-1.1006c0.8074,0 1.5391,0.4206 2.0686,1.1006z" data-paper-data="{&quot;index&quot;:null}" fill="#000000" stroke="none" stroke-width="0.77185" stroke-linecap="butt" stroke-linejoin="miter"/><path d="M253.32685,190.66654c0,0 -8.89741,12.36757 -21.1244,14.01038c-12.22699,1.64281 -21.25506,-0.16231 -15.12779,-11.1725c7.87391,-14.14961 29.53475,-15.74939 43.20238,-14.75778" data-paper-data="{&quot;index&quot;:null}" fill="#8a8fc6" stroke="#000000" stroke-width="2.31554" stroke-linecap="round" stroke-linejoin="round"/><g data-paper-data="{&quot;index&quot;:null}" stroke="none" stroke-width="0.77185" stroke-linecap="butt" stroke-linejoin="miter"><path d="M210.64931,236.476c-0.71305,-0.18672 -1.27787,-0.50374 -1.66267,-0.92361c-1.2991,-1.35509 -0.88049,-2.8684 -0.0682,-4.15727c-1.98888,0.39837 -4.28375,0.56973 -6.14006,0.08364c-1.48435,-0.38869 -2.52073,-1.15069 -3.07971,-2.26411c-1.09089,-2.17747 -0.56207,-3.79506 0.0741,-4.76784c0.35211,-0.54054 0.81901,-1.00387 1.34913,-1.38925c-2.82443,-1.09386 -3.63496,-2.86753 -3.41739,-4.17093c0.28454,-1.71114 2.3174,-3.40802 7.14076,-3.18944c0.2185,-0.08161 0.46296,-0.09812 0.69968,-0.03613c0.22095,0.05786 0.46262,0.22885 0.61445,0.39865c0.6975,0.78261 3.23612,3.55616 6.60317,6.40461c1.90955,1.61707 9.52957,5.14431 12.3044,6.36639c0.35978,0.15892 0.61461,0.48966 0.67642,0.87851c0.06174,0.38872 -0.07878,0.78205 -0.37169,1.04441c-1.10562,0.9895 -6.8832,4.71059 -8.23967,5.22588c-0.02992,0.01046 -0.06056,0.02085 -0.09078,0.02968c-0.15888,0.04616 -3.92038,1.11403 -6.39195,0.46683z" fill="#f7941e"/><path d="M205.25168,216.78098c-0.00077,-0.0002 0.02866,0.03386 0.08868,0.10622c-7.6975,-0.56836 -8.55942,3.91183 -2.65704,5.45743c0.85343,0.22348 1.84739,0.38556 2.98336,0.46284c-2.35627,-0.12155 -6.96218,1.83996 -4.93311,5.88904c0.43484,0.86549 1.28216,1.38663 2.33787,1.66307c2.90679,0.76118 7.3915,-0.33203 9.18303,-1.19536c-0.98161,1.33229 -4.14026,3.80593 -2.4323,5.58647c0.26635,0.28993 0.65588,0.48445 1.12099,0.60625c1.76286,0.46162 4.59817,-0.11877 5.77869,-0.45913c1.19522,-0.45373 6.86942,-4.10297 7.8782,-5.00608c0,0 -10.12919,-4.46277 -12.58603,-6.54309c-3.97557,-3.36453 -6.75491,-6.56571 -6.76236,-6.56766M205.83824,214.541c0.67717,0.17732 1.04667,0.59164 1.18509,0.74831c0.68474,0.76738 3.17731,3.49135 6.48564,6.2901c1.6044,1.35926 8.22646,4.51984 12.0244,6.19259c0.72036,0.31713 1.23027,0.97805 1.35288,1.75609c0.12356,0.77756 -0.15669,1.56433 -0.74311,2.08817c-1.08136,0.96712 -7.04019,4.85298 -8.60024,5.445c-0.05939,0.02269 -0.12054,0.04266 -0.18196,0.06089c-0.42962,0.1236 -4.27807,1.18793 -7.0056,0.4737c-0.92066,-0.24108 -1.66816,-0.66497 -2.22228,-1.26087c-1.09362,-1.14973 -1.30145,-2.3579 -1.06943,-3.49067c-1.58342,0.15422 -3.19488,0.11678 -4.57998,-0.24592c-2.26687,-0.5936 -3.32878,-1.88574 -3.82094,-2.86434c-1.04351,-2.08443 -0.99406,-4.18667 0.13932,-5.92207c0.10134,-0.15529 0.21082,-0.30536 0.32603,-0.45c-2.18902,-1.35988 -2.80805,-3.21902 -2.56717,-4.66631c0.36204,-2.17762 2.69882,-4.35261 8.13636,-4.16381c0.36722,-0.08898 0.75792,-0.09118 1.14101,0.00913z" fill="#000000"/></g></g></g></svg>