<svg version="1.1" xmlns="http://www.w3.org/2000/svg" xmlns:xlink="http://www.w3.org/1999/xlink" width="16.82965" height="40.16805" viewBox="0,0,16.82965,40.16805"><g transform="translate(-236.29646,-154.40695)"><g data-paper-data="{&quot;isPaintingLayer&quot;:true}" fill-rule="nonzero" stroke="none" stroke-width="1" stroke-linecap="butt" stroke-linejoin="miter" stroke-miterlimit="10" stroke-dasharray="" stroke-dashoffset="0" style="mix-blend-mode: normal"><g><path d="M237.42327,192.14583c0,0 -0.86756,-25.76655 0.17351,-29.32354c0,0 3.73051,-6.07292 9.62992,-8.41534c0,0 4.16429,5.89941 5.89941,11.10477c0,0 -7.98156,25.50628 -9.19614,27.2414c0,0 -2.68944,1.47485 -4.42456,1.64836c0.08676,0.08676 -2.08215,-0.95432 -2.08215,-2.25566z" fill="#8644b3"/><path d="M247.2267,154.58046l-4.68483,14.4015c-2.94971,-1.64836 -4.85834,-6.07292 -4.85834,-6.07292c0,0 3.73051,-6.07292 9.54317,-8.32858z" fill="#ea8be5"/><path d="M247.2267,154.58046l-4.68483,14.4015c-2.94971,-1.64836 -4.85834,-6.07292 -4.85834,-6.07292c0,0 3.73051,-6.07292 9.54317,-8.32858z" fill="#ea8be5"/><path d="M252.9526,166.29253c-5.46563,1.64836 -10.49748,2.68944 -10.49748,2.68944l4.77158,-14.4015c0,-0.08676 0.08676,-0.08676 0.08676,-0.08676c0,0 4.16429,5.89941 5.81266,11.10477c0,0 0,0.17351 -0.17351,0.69405z" fill="#ad59c2"/><path d="M242.54187,169.06872l-2.94971,25.50628c0,0 -2.08215,-1.12783 -2.08215,-2.34241c0,0 -0.86756,-25.76655 0.17351,-29.32354z" fill="#ad59c2"/><path d="M242.45512,168.98197c0,0 -0.08676,1.3881 -0.26027,3.47024c-0.08676,1.04107 -0.26027,2.25566 -0.34702,3.557c-0.17351,1.30134 -0.26027,2.68944 -0.43378,3.99078c-0.17351,1.3881 -0.34702,2.77619 -0.52054,3.99078c-0.17351,1.30134 -0.34702,2.51593 -0.43378,3.47024c-0.34702,1.99539 -0.52054,3.38349 -0.52054,3.38349c0,0 0.08676,-1.3881 0.26027,-3.47024c0.08676,-1.04107 0.26027,-2.25566 0.34702,-3.557c0.17351,-1.30134 0.26027,-2.68944 0.43378,-3.99078c0.17351,-1.3881 0.34702,-2.77619 0.52054,-3.99078c0.17351,-1.30134 0.34702,-2.51593 0.43378,-3.47024c0.34702,-2.08215 0.52054,-3.38349 0.52054,-3.38349z" fill="#ea8be5"/><path d="M239.85244,191.62529l-0.34702,2.86295c0,0 -2.08215,-1.12783 -2.08215,-2.34241c0,0 1.3881,-0.26027 2.42917,-0.52054z" fill="#a546bd"/><path d="M243.92997,192.83988c0,0 -2.77619,1.47485 -4.42456,1.64836l0.34702,-2.86295c0.52054,-0.08676 0.95432,-0.17351 1.12783,-0.17351c0.69405,-0.08676 2.94971,1.3881 2.94971,1.3881z" fill="#7c36ab"/><path d="M239.59217,194.48824c0.7808,-0.17351 1.56161,-0.43378 2.25566,-0.69405c0.69405,-0.26027 1.3881,-0.60729 1.99539,-1.12783l-0.08676,0.08676c0.52054,-1.73512 1.12783,-3.47024 1.73512,-5.20536c0.60729,-1.73512 1.12783,-3.47024 1.73512,-5.11861c1.21458,-3.47024 2.42917,-6.85373 3.73051,-10.23721c-1.04107,3.47024 -2.1689,6.94048 -3.38349,10.41073c-0.60729,1.73512 -1.21458,3.47024 -1.73512,5.11861c-0.60729,1.73512 -1.21458,3.47024 -1.82188,5.11861c-0.69405,0.43378 -1.3881,0.7808 -2.1689,1.04107c-0.7808,0.34702 -1.47485,0.52054 -2.25566,0.60729z" fill="#6b348f"/><path d="M237.59678,162.90904c0,0 3.99078,-0.34702 6.94048,-0.34702l-2.08215,6.41995c-2.86295,-1.73512 -4.85834,-6.07292 -4.85834,-6.07292z" fill="#e17de3"/><path d="M247.48697,162.82229c0.7808,0.26027 3.64375,1.56161 5.55239,2.51593c0,0.08676 0.08676,0.26027 0.08676,0.34702c0,0 -0.08676,0.17351 -0.17351,0.60729c-5.46563,1.64836 -10.49748,2.68944 -10.49748,2.68944l2.08215,-6.41995c1.3881,0 2.60268,0 2.94971,0.26027z" fill="#9b4dae"/><path d="M252.9526,166.20577c0,0 -0.52054,0.26027 -1.21458,0.52054c-0.7808,0.26027 -1.73512,0.60729 -2.77619,0.95432c-1.04107,0.26027 -2.08215,0.52054 -2.86295,0.69405c-0.7808,0.17351 -1.30134,0.17351 -1.30134,0.17351c0,0 0.08676,0 0.34702,-0.08676c0.26027,-0.08676 0.52054,-0.17351 0.95432,-0.26027c0.7808,-0.26027 1.73512,-0.52054 2.77619,-0.86756c1.04107,-0.26027 2.08215,-0.60729 2.86295,-0.7808c0.69405,-0.26027 1.21458,-0.34702 1.21458,-0.34702z" fill="#6b348f"/></g><path d="M239.42915,168.81506c0,0 -0.14918,0.5967 -0.37294,1.49175c-0.22376,0.89505 -0.5967,2.08846 -0.96964,3.28186c-0.37294,1.1934 -0.82046,2.38681 -1.1934,3.28186c-0.37294,0.89505 -0.5967,1.49175 -0.5967,1.49175c0,0 0.14918,-0.5967 0.37294,-1.49175c0.22376,-0.96964 0.5967,-2.23763 0.96964,-3.35645c0.37294,-1.1934 0.82046,-2.38681 1.1934,-3.28186c0.29835,-0.89505 0.5967,-1.41717 0.5967,-1.41717z" fill="#ffbcfc"/></g></g></svg>