<svg version="1.1" xmlns="http://www.w3.org/2000/svg" xmlns:xlink="http://www.w3.org/1999/xlink" width="11.30926" height="44.56458" viewBox="0,0,11.30926,44.56458"><g transform="translate(-234.62337,-160.37912)"><g data-paper-data="{&quot;isPaintingLayer&quot;:true}" fill-rule="nonzero" stroke="none" stroke-width="0.66342" stroke-linecap="butt" stroke-linejoin="miter" stroke-miterlimit="10" stroke-dasharray="" stroke-dashoffset="0" style="mix-blend-mode: normal"><path d="M245.42209,174.50742l-3.73492,11.83418l2.7774,-1.97141l-5.66396,18.38562l1.15337,-13.01533l-1.98201,2.05343l1.36035,-11.39847l-3.09318,2.29024l1.89385,-9.30844l-2.69392,1.71489l-0.34126,-13.97932l6.84517,-0.00019l-1.5011,8.53419l3.92235,-1.95974l-2.79877,8.71067l3.85663,-1.89029" fill="#faec00"/><path d="M245.93263,173.90248l-2.91708,10.74076l2.91708,-2.00445l-7.5038,22.30491l0.47393,-13.1234l-1.58671,1.39462l1.45118,-11.3631l-3.12675,1.82367l1.54418,-9.04671l-2.26221,1.66714l-0.29908,-15.9168l8.19777,0.41897l-1.31653,7.68904l3.62022,-1.56804l-2.48338,8.34462l3.29119,-1.36123zM244.13751,184.82274l-2.78243,1.97463l3.76975,-11.9442l-3.8595,1.89153l2.79751,-8.70634l-3.8595,1.9283l1.52584,-8.67454l-6.44752,0.00016l0.32904,13.47776l2.78243,-1.77122l-1.88487,9.26407l3.05172,-2.25952l-1.34635,11.2818l1.96459,-2.03513l-1.0487,11.82876l5.00802,-16.25605z" fill="#231f20"/></g></g></svg>